<svg width="28" height="28" viewBox="0 0 28 28" fill="none" xmlns="http://www.w3.org/2000/svg">
<path d="M21.8283 22.7497C20.86 24.1963 19.8333 25.608 18.27 25.6313C16.7067 25.6663 16.205 24.7097 14.4317 24.7097C12.6467 24.7097 12.0983 25.608 10.6167 25.6663C9.08834 25.7247 7.93334 24.1263 6.95334 22.7147C4.95834 19.833 3.43001 14.5247 5.48334 10.9547C6.49834 9.18134 8.31834 8.06134 10.29 8.02634C11.7833 8.00301 13.2067 9.04134 14.1283 9.04134C15.0383 9.04134 16.765 7.79301 18.5733 7.97967C19.3317 8.01467 21.455 8.28301 22.82 10.2897C22.715 10.3597 20.2883 11.783 20.3117 14.7347C20.3467 18.258 23.4033 19.4363 23.4383 19.448C23.4033 19.5297 22.9483 21.128 21.8283 22.7497ZM15.1667 4.08301C16.0183 3.11467 17.43 2.37967 18.5967 2.33301C18.7483 3.69801 18.2 5.07467 17.3833 6.05467C16.5783 7.04634 15.2483 7.81634 13.9417 7.71134C13.7667 6.36967 14.42 4.96967 15.1667 4.08301Z" fill="black"/>
</svg>
